<svg width="376" height="175" viewBox="0 0 376 175" fill="none" xmlns="http://www.w3.org/2000/svg">
<g filter="url(#filter0_dd_244_14610)">
<path fill-rule="evenodd" clip-rule="evenodd" d="M31.6349 36.1901C30 39.3988 30 43.5992 30 52V91C30 99.4008 30 103.601 31.6349 106.81C33.073 109.632 35.3677 111.927 38.1901 113.365C41.3988 115 45.5992 115 54 115H52.7242C59.0711 115 64.6066 121.872 69.7532 128.262C74.2244 133.813 78.4022 139 82.5637 139C86.7183 139 90.8728 133.831 95.3256 128.29C100.467 121.893 106.007 115 112.403 115H320C328.401 115 332.601 115 335.81 113.365C338.632 111.927 340.927 109.632 342.365 106.81C344 103.601 344 99.4008 344 91V52C344 43.5992 344 39.3988 342.365 36.1901C340.927 33.3677 338.632 31.073 335.81 29.6349C332.601 28 328.401 28 320 28H54C45.5992 28 41.3988 28 38.1901 29.6349C35.3677 31.073 33.073 33.3677 31.6349 36.1901Z" fill="#A393F5" fill-opacity="0.55"/>
</g>
<defs>
<filter id="filter0_dd_244_14610" x="-2" y="0" width="378" height="175" filterUnits="userSpaceOnUse" color-interpolation-filters="sRGB">
<feFlood flood-opacity="0" result="BackgroundImageFix"/>
<feColorMatrix in="SourceAlpha" type="matrix" values="0 0 0 0 0 0 0 0 0 0 0 0 0 0 0 0 0 0 127 0" result="hardAlpha"/>
<feOffset dy="4"/>
<feGaussianBlur stdDeviation="16"/>
<feColorMatrix type="matrix" values="0 0 0 0 0 0 0 0 0 0 0 0 0 0 0 0 0 0 0.16 0"/>
<feBlend mode="normal" in2="BackgroundImageFix" result="effect1_dropShadow_244_14610"/>
<feColorMatrix in="SourceAlpha" type="matrix" values="0 0 0 0 0 0 0 0 0 0 0 0 0 0 0 0 0 0 127 0" result="hardAlpha"/>
<feOffset/>
<feGaussianBlur stdDeviation="2"/>
<feColorMatrix type="matrix" values="0 0 0 0 0 0 0 0 0 0 0 0 0 0 0 0 0 0 0.04 0"/>
<feBlend mode="normal" in2="effect1_dropShadow_244_14610" result="effect2_dropShadow_244_14610"/>
<feBlend mode="normal" in="SourceGraphic" in2="effect2_dropShadow_244_14610" result="shape"/>
</filter>
</defs>
</svg>
